HIERARCHY
ROOT Hips
{
	OFFSET 0.000000 0.000000 0.000000
	CHANNELS 6 Xposition Yposition Zposition Zrotation Yrotation Xrotation 
	JOINT LHipJoint
	{
		OFFSET 0.000000 0.000000 0.000000
		CHANNELS 3 Zrotation Yrotation Xrotation
		JOINT LeftUpLeg
		{
			OFFSET 1.363060 -1.794630 0.839290
			CHANNELS 3 Zrotation Yrotation Xrotation
			JOINT LeftLeg
			{
				OFFSET 2.448110 -6.726130 0.000000
				CHANNELS 3 Zrotation Yrotation Xrotation
				JOINT LeftFoot
				{
					OFFSET 2.562200 -7.039590 0.000000
					CHANNELS 3 Zrotation Yrotation Xrotation
					JOINT LeftToeBase
					{
						OFFSET 0.157640 -0.433110 2.322550
						CHANNELS 3 Zrotation Yrotation Xrotation
						End Site
						{
							OFFSET 0.000000 0.000000 0.000000
						}
					}
				}
			}
		}
	}
	JOINT RHipJoint
	{
		OFFSET 0.000000 0.000000 0.000000
		CHANNELS 3 Zrotation Yrotation Xrotation
		JOINT RightUpLeg
		{
			OFFSET -1.305520 -1.794630 0.839290
			CHANNELS 3 Zrotation Yrotation Xrotation
			JOINT RightLeg
			{
				OFFSET -2.542530 -6.985550 0.000000
				CHANNELS 3 Zrotation Yrotation Xrotation
				JOINT RightFoot
				{
					OFFSET -2.568260 -7.056230 0.000000
					CHANNELS 3 Zrotation Yrotation Xrotation
					JOINT RightToeBase
					{
						OFFSET -0.164730 -0.452590 2.363150
						CHANNELS 3 Zrotation Yrotation Xrotation
						End Site
						{
							OFFSET 0.000000 0.000000 0.000000
						}
					}
				}
			}
		}
	}
	JOINT LowerBack
	{
		OFFSET 0.000000 0.000000 0.000000
		CHANNELS 3 Zrotation Yrotation Xrotation
		JOINT Spine
		{
			OFFSET 0.028270 2.035590 -0.193380
			CHANNELS 3 Zrotation Yrotation Xrotation
			JOINT Spine1
			{
				OFFSET 0.056720 2.048850 -0.042750
				CHANNELS 3 Zrotation Yrotation Xrotation
				JOINT Neck
				{
					OFFSET 0.000000 0.000000 0.000000
					CHANNELS 3 Zrotation Yrotation Xrotation
					JOINT Neck1
					{
						OFFSET -0.054170 1.746240 0.172020
						CHANNELS 3 Zrotation Yrotation Xrotation
						JOINT Head
						{
							OFFSET 0.104070 1.761360 -0.123970
							CHANNELS 3 Zrotation Yrotation Xrotation
							End Site
							{
								OFFSET 0.000000 0.000000 0.000000
							}
						}
					}
				}
				JOINT LeftShoulder
				{
					OFFSET 0.000000 0.000000 0.000000
					CHANNELS 3 Zrotation Yrotation Xrotation
					JOINT LeftArm
					{
						OFFSET 3.362410 1.200890 -0.311210
						CHANNELS 3 Zrotation Yrotation Xrotation
						JOINT LeftForeArm
						{
							OFFSET 4.983000 -0.000000 -0.000000
							CHANNELS 3 Zrotation Yrotation Xrotation
							JOINT LeftHand
							{
								OFFSET 3.483560 -0.000000 -0.000000
								CHANNELS 3 Zrotation Yrotation Xrotation
								JOINT LeftFingerBase
								{
									OFFSET 0.000000 0.000000 0.000000
									CHANNELS 3 Zrotation Yrotation Xrotation
									JOINT LeftHandIndex1
									{
										OFFSET 0.715260 -0.000000 -0.000000
										CHANNELS 3 Zrotation Yrotation Xrotation
										End Site
										{
											OFFSET 0.000000 0.000000 0.000000
										}
									}
								}
								JOINT LThumb
								{
									OFFSET 0.000000 0.000000 0.000000
									CHANNELS 3 Zrotation Yrotation Xrotation
									End Site
									{
										OFFSET 0.000000 0.000000 0.000000
									}
								}
							}
						}
					}
				}
				JOINT RightShoulder
				{
					OFFSET 0.000000 0.000000 0.000000
					CHANNELS 3 Zrotation Yrotation Xrotation
					JOINT RightArm
					{
						OFFSET -3.136600 1.374050 -0.404650
						CHANNELS 3 Zrotation Yrotation Xrotation
						JOINT RightForeArm
						{
							OFFSET -5.241900 -0.000000 -0.000000
							CHANNELS 3 Zrotation Yrotation Xrotation
							JOINT RightHand
							{
								OFFSET -3.444170 -0.000000 -0.000000
								CHANNELS 3 Zrotation Yrotation Xrotation
								JOINT RightFingerBase
								{
									OFFSET 0.000000 0.000000 0.000000
									CHANNELS 3 Zrotation Yrotation Xrotation
									JOINT RightHandIndex1
									{
										OFFSET -0.622530 -0.000000 -0.000000
										CHANNELS 3 Zrotation Yrotation Xrotation
										End Site
										{
											OFFSET 0.000000 0.000000 0.000000
										}
									}
								}
								JOINT RThumb
								{
									OFFSET 0.000000 0.000000 0.000000
									CHANNELS 3 Zrotation Yrotation Xrotation
									End Site
									{
										OFFSET 0.000000 0.000000 0.000000
									}
								}
							}
						}
					}
				}
			}
		}
	}
}
MOTION
Frames: 7
Frame Time: 0.008333
-8.140210 14.941532 16.733784 179.799952 74.171990 -172.957884 0.712371 -4.044566 -8.988466 -16.880339 -3.659652 -50.119038 6.117380 24.659835 81.351807 -1.211894 4.520964 7.964041 0.834534 1.143196 -3.305169 9.100990 12.860459 -9.877982 -13.321362 -21.396068 -15.300270 -4.823280 -16.404655 49.155402 -3.092592 9.389857 -16.363946 -10.916740 0.499874 -29.554736 -7.032114 -3.727059 23.120625 3.856024 1.532958 -6.639600 3.671657 -0.738234 3.622948 -1.063133 -1.675652 -10.256233 5.955354 -2.408408 6.038642 1.351450 -8.342238 12.153325 14.346581 1.064713 0.487716 -86.706589 -3.464836 10.683968 173.642963 -70.841711 -168.823691 -8.726680 18.763091 -4.023771 0.000001 -0.000001 0.000002 0.000000 -0.000000 0.000000 -0.000000 -0.000000 0.000000 -9.319793 4.871920 6.203627 56.802067 36.437497 3.421077 -20.232793 76.772066 -11.770382 17.139372 0.173660 0.320556 0.000000 0.000000 0.000000 0.000000 0.000000 0.000000 0.000000 0.000000 0.000000 
-7.937237 14.869640 16.774775 -179.902286 74.436180 -172.666958 0.645153 -3.488197 -8.857310 -18.182947 -4.085466 -50.926200 5.079181 24.557319 79.724719 -0.994128 3.665357 7.635248 1.563598 -0.719939 -3.189562 8.971041 12.307294 -9.759153 -12.508820 -20.610981 -15.248252 -5.576425 -17.071186 49.949955 -5.335414 8.993408 -17.505191 -10.581914 -0.299111 -29.913049 -6.875235 -3.984512 23.059014 3.837132 1.427896 -6.427851 3.417963 -0.895298 4.788062 -0.961149 -1.633705 -10.919809 6.039744 -2.379920 5.789802 0.820150 -8.175509 11.851971 14.087356 2.486490 0.623938 -87.586735 -3.389921 9.125399 175.354659 -71.884726 -170.471975 -9.001952 17.483801 -3.775266 0.000001 -0.000001 0.000002 0.000000 0.000000 0.000000 0.000000 -0.000000 -0.000000 -9.159589 5.215937 6.538448 55.359009 39.785501 2.677256 -18.400227 76.066804 -9.727059 15.469030 0.705963 0.440673 0.000000 0.000000 0.000000 0.000000 -0.000000 0.000000 0.000000 0.000000 0.000000 
-7.737132 14.806036 16.819069 179.054426 74.718803 -173.670187 0.767532 -3.060829 -8.714573 -20.046756 -4.531299 -51.430195 3.895013 24.252917 77.331039 -2.263235 2.827860 7.019237 3.768737 -3.715046 -5.433993 8.838535 12.270310 -9.913944 -12.265816 -20.263490 -14.380235 -5.774402 -16.921609 50.311232 -7.596457 7.996431 -18.762435 -9.971991 -1.852868 -30.775039 -7.193752 -4.322674 23.240994 3.792962 1.402138 -6.267386 3.226910 -0.916140 5.101185 -0.921269 -1.597762 -10.933460 6.199470 -2.366598 5.729072 0.397828 -7.939490 11.274770 14.108454 3.297697 0.729980 -88.437783 -2.701589 7.868381 176.716878 -72.741327 -172.290982 -7.125910 17.368676 -3.478425 0.000001 -0.000001 0.000002 0.000000 0.000000 0.000000 0.000000 -0.000000 0.000000 -9.254024 5.666933 6.937440 54.660417 42.409501 1.990233 -17.647722 75.974489 -8.984935 14.378895 0.644867 0.399337 -0.000000 0.000000 -0.000000 -0.000000 0.000000 -0.000000 -0.000000 0.000000 -0.000000 
-7.537778 14.755691 16.855706 178.220965 75.070807 -174.262531 0.796603 -2.809542 -8.586446 -21.234269 -5.191816 -51.854310 1.256855 24.044678 74.371002 -2.348005 2.843865 6.450218 4.798280 -3.501476 -7.962871 8.744456 12.204112 -9.945002 -12.101218 -19.011448 -13.510852 -5.594110 -17.411214 50.390934 -10.800276 6.342633 -19.836084 -9.376583 -2.965497 -31.037459 -7.365947 -4.576108 23.292340 3.774809 1.360077 -6.173369 2.795288 -0.882973 5.328046 -0.698008 -1.566937 -10.882179 6.340613 -2.396668 5.646039 0.223907 -7.842336 10.534132 14.085834 3.997933 0.794141 -89.201863 -1.982589 6.773954 177.520047 -73.637199 -173.666285 -5.433378 17.464110 -3.254328 0.000001 -0.000001 0.000002 0.000000 -0.000000 0.000000 -0.000000 0.000000 -0.000000 -8.957207 6.109780 7.406133 53.646122 45.001836 0.950786 -15.987677 75.881518 -7.341398 13.601964 1.057391 0.491181 -0.000000 0.000000 0.000000 0.000000 0.000000 0.000000 -0.000000 0.000000 0.000000 
-7.333754 14.699369 16.886486 177.962664 75.417431 -174.326437 0.912317 -2.377624 -8.467808 -22.673881 -5.879919 -52.168054 -0.241307 23.548646 71.472024 -3.257642 2.226958 6.472419 6.112058 -4.595232 -9.761263 8.564781 12.034903 -9.887399 -11.506982 -18.045736 -12.926876 -5.277065 -17.400232 50.611015 -13.331546 4.441780 -20.793111 -9.447775 -3.408021 -31.961099 -7.293692 -4.818014 23.251042 3.702711 1.426318 -6.033728 2.354633 -0.751870 5.422824 -0.528234 -1.467950 -10.672331 6.460213 -2.358817 5.576111 0.209974 -7.598477 10.176801 14.081381 4.387297 0.844431 -89.982118 -1.165919 5.827237 177.617573 -74.537660 -173.866807 -5.392207 16.919673 -3.142819 0.000001 -0.000001 0.000002 -0.000000 0.000000 0.000000 0.000000 -0.000000 -0.000000 -8.689916 6.491276 7.772029 52.604630 47.240563 0.080651 -15.023916 75.683421 -6.163247 12.383560 1.457000 0.560791 0.000000 0.000000 -0.000000 0.000000 0.000000 -0.000000 0.000000 0.000000 -0.000000 
-7.135150 14.655631 16.909309 177.968911 75.550534 -174.269166 1.027988 -2.129580 -8.430753 -23.565131 -6.714226 -51.849447 -1.916687 23.411003 68.049281 -3.774515 1.641206 6.291773 6.912363 -5.930695 -10.161260 8.230619 12.071393 -10.069174 -10.969572 -17.202169 -11.642014 -5.259200 -18.086400 50.360153 -15.315570 3.253697 -21.250170 -9.004647 -4.377173 -32.451304 -7.196304 -5.049342 23.483389 3.633829 1.399162 -5.977957 1.793872 -0.685973 5.359958 -0.177705 -1.414479 -10.450560 6.606650 -2.383485 5.682362 -0.046447 -7.284186 9.645438 14.379924 4.776671 0.958460 -90.389354 -0.407004 5.715869 177.242362 -75.241717 -173.460947 -5.187926 16.609865 -3.055082 0.000001 -0.000001 0.000002 0.000000 -0.000000 0.000000 0.000000 -0.000000 0.000000 -8.350309 6.836892 8.167516 52.170295 49.183963 -1.063833 -13.960001 76.045933 -5.495543 11.765204 0.939804 0.414826 0.000000 -0.000000 0.000000 -0.000000 -0.000000 -0.000000 0.000000 -0.000000 0.000000 
-6.915225 14.612868 16.931682 178.260614 75.399968 -174.003501 1.541829 -1.712093 -8.183197 -24.771034 -7.857404 -51.258230 -4.875441 22.576559 64.354997 -2.529193 1.850946 5.334151 8.947688 -11.806696 -8.998078 7.905605 12.220052 -10.302528 -10.066691 -18.780080 -10.917809 -5.907301 -17.153806 50.473574 -15.832032 3.168677 -21.654844 -8.425980 -5.389585 -32.687491 -7.254665 -5.385059 23.527846 3.646865 1.048789 -5.862220 1.077666 -0.887170 5.487166 0.484187 -1.379054 -10.334703 6.816613 -2.481290 6.023890 -0.585772 -6.862585 9.064070 15.163355 5.638261 0.945071 -90.419124 0.580656 6.653273 175.676983 -75.718289 -171.214089 -4.482698 15.929592 -2.833501 0.000001 -0.000001 0.000002 -0.000000 0.000000 -0.000000 0.000000 -0.000000 -0.000000 -7.873929 7.380056 8.828044 52.440080 51.289479 -2.303674 -13.151825 76.995675 -4.898292 11.520557 0.708695 0.352234 -0.000000 0.000000 -0.000000 -0.000000 0.000000 -0.000000 -0.000000 0.000000 -0.000000 
